# xmcd
#
# Track frame offsets: 
#        150
#        12953
#        33215
#        61730
#        73289
#        94284
#        105182
#        131267
#        156121
#        175647
#        184191
#
# Disc length: 2832 seconds
#
# Revision: 1
# Processed by: cddbd v1.5.2PL0 Copyright (c) Steve Scherf et al.
# Submitted via: ExactAudioCopy v0.99pb5
#
DISCID=820b0e0b
DTITLE=Miro - Le Vainqueur Jaloux
DYEAR=2007
DGENRE=
TTITLE0=La blonde rousse
TTITLE1=Les effets contraires
TTITLE2=Nu
TTITLE3=Autostrada
TTITLE4=La pitoyable histoire de Mister Kaillasse
TTITLE5=Poverty
TTITLE6=Veilleur de vie
TTITLE7=Mes textes de Baudelaire
TTITLE8=Bye bye
TTITLE9=Quand
TTITLE10=Allume-moi
EXTD=
EXTT0=
EXTT1=
EXTT2=
EXTT3=
EXTT4=
EXTT5=
EXTT6=
EXTT7=
EXTT8=
EXTT9=
EXTT10=
PLAYORDER=
